# Blender 4.1.0
# www.blender.org
mtllib grass.mtl
o Plane
v -0.006538 -0.000000 0.000000
v 0.016503 0.000000 -0.000000
v -0.003093 0.308040 -0.268330
v 0.008969 0.308174 -0.269253
v -0.004807 0.152213 -0.078367
v 0.013009 0.152299 -0.078351
v 0.001770 0.320667 -0.358607
v -0.004001 0.252326 -0.164318
v 0.010989 0.251450 -0.164345
vn -0.6655 0.7123 0.2228
vn 0.6838 0.7029 0.1956
vn -0.4877 0.8183 0.3042
vn -0.7100 0.3321 0.6210
vn 0.7136 0.4036 0.5726
vn -0.7164 0.3961 0.5744
vn 0.6955 0.3470 0.6292
vn 0.7390 0.5315 0.4141
vn -0.6689 0.5828 0.4614
vt 0.009301 0.413811
vt 0.418593 0.355078
vt 0.021703 0.849921
vt 0.000000 0.000000
vt 0.754814 0.245186
vt 0.000000 0.249030
vt 1.000000 0.000000
vt 0.586704 0.300132
vt 0.004651 0.331420
s 1
usemtl Material.002
f 3/1/1 4/2/2 7/3/3
f 1/4/4 6/5/5 5/6/6
f 1/4/4 2/7/7 6/5/5
f 9/8/8 5/6/6 6/5/5
f 3/1/1 9/8/8 4/2/2
f 9/8/8 8/9/9 5/6/6
f 3/1/1 8/9/9 9/8/8
